<?xml version="1.0" encoding="UTF-8"?>
<svg viewBox="0 0 639.27 558.87" xmlns="http://www.w3.org/2000/svg">
 <g stroke="#00181a">
  <rect x="-64.584" y="72.809" width="143.9" height="0" rx="5.7351" ry="0" fill="#e8e5e5" fill-opacity=".019" stroke-width="8.15"/>
  <g transform="matrix(.84285 0 0 .84285 42.35 -32.967)" fill="#fff">
   <path d="m173.33 46.926l468.2-1.4535c2.8246 61.401 3.0774 4.9332-1.0338 79.641l-6.3129 103.91c-68.316 11.792-156.63 107.16-159.81 107.16l-255.98 3.0104c-3.1773 0-8.6422-112.91-44.981-114.53l-5.8141-90.934c0-33.595-9.0704-66.456 5.7351-86.805z" stroke-width="8.15"/>
   <path d="m636.55 341.27c0 15.044 3.8683 35.212-5.123 49.802-8.9912 14.59-30.842 23.602-51.756 23.602s-28.956-7.9218-41.218-15.426c-12.262-7.5039-39.021-6.3675-76.813-4.6959 0-15.044 15.494-52.882 30.3-72.923 14.805-20.041 39.2-30.506 60.114-30.506s42.038 5.0147 57.934 13.79c15.896 8.7758 26.563 21.312 26.563 36.357z" stroke-width="8.676"/>
   <g stroke-width="8.15">
    <path d="m89.464 336.49c0 15.044 29.425 29.024 16.139 38.89-13.286 9.8659-63.652 2.7443-79.788 6.4162-35.941 8.1786-71.986-12.613-71.986-27.657s5.6668-61.81 18.953-71.676c13.286-9.8659 23.019-10.655 43.278-10.655s38.61 13.373 51.896 23.238c13.286 9.8659 21.507 26.4 21.507 41.444z"/>
    <path d="m214.71 319.36c2.9071 29.382-10.367 29.303-37.479 34.131-27.309 4.8631-29.313 16.368-66.221 16.368-23.826-15.989-23.507-25.148-22.822-59.351 0.28925-14.437-27.355-33.468-50.153-40.342-22.797-6.8736-40.748-1.5888-38.513-2.2772 11.375-3.5041 60.101-19.026 80.009-26.294 36.908 0 61.618-8.6951 91.637-20.946 37.718-15.394 43.542 78.05 43.542 98.711z"/>
    <path d="m693.78 324.55c0 14.442-20.804 46.068-28.544 45.916-7.7401-0.15262-21.022 22.4-31.051 22.4 3.1978-23.257 2.8121-69.579-13.591-88.079-19.695-22.213-57.633-3.6804-92.518-18.03 21.803-14.349 44.842-38.696 71.442-44.193 26.6-5.4973 46.586-11.041 66.645-11.041 10.029 0 37.846 36.876 37.983 48.306 0.13623 11.429-4.5514 30.279-10.366 44.721z"/>
    <path d="m-24.351 400.14l549.6 8.7212c11.898 10.175 28.992-13.653 28.992 19.942l-1.4535 72.038c0 33.595-24.361 35.931-27.538 35.931l-299.59-11.628c-36.609-11.628-216.5-0.88245-242.66-21.396l-10.175-28.431c0-33.595-0.34921-75.177 2.828-75.177z"/>
    <path d="m227.11 339.69l244.35 2.9071c20.485-14.535-20.473 38.604-4.5375 52.835 15.935 14.231 82.95-4.631 82.95 12.167l-55.11-0.0703-335.89-2.0226c-55.234-1.2895-146.81-5.6501-178.78-8.7212l15.262-12.762 85.032-1.1338c19.623-2.9891 19.899-1.0704 66.54-15.12 49.467-14.901 78.6-28.079 80.188-28.079z"/>
    <path d="m621.02 401.59l45.218-27.617c3.1772 0 1.3745 82.281 1.3745 115.88l-21.803 40.06c-21.803 24.874-47.618 47.56-50.795 47.56l-39.404 53.781c-11.898 2.9071-1.3745-60.478-1.3745-94.073l1.4536-109.33c0-33.595 59.246 2.8154 65.33-26.255z"/>
    <path d="m4.7199 519.33l543.53 9.22c4.6308 11.628 1.6239 28.001 1.6239 61.596l-4.3607 45.874c0 33.595-146.46 2.5-149.64 2.5l-362.09-21.803c-3.1773 0-26.085 10.746-26.085-22.85l-8.7212-50.234c0-33.596 2.5579-24.303 5.7351-24.303z"/>
    <path d="m25.069 618.17l65.567 4.3606c3.1773 0 7.1887 4.5583 7.1887 17.442s-20 13.082-23.178 13.082l-39.404 5.8141c-3.1773 0-8.6422-3.1048-8.6422-15.989s-4.7098-24.71-1.5326-24.71z"/>
    <path d="m448.05 651.6l85.917-1.4536c3.1772 0-2.9861 13.928-2.9861 27.617s-14.186 20.35-17.364 20.35l-58.3-1.4536c-3.1773 0-4.2816-8.1136-4.2816-21.803 0-13.69-6.1634-23.257-2.9861-23.257z"/>
    <path d="m637.01 526.59l19.054-11.628c3.1773 0 6.0844 21.803 2.9071 21.803l-7.4258 11.628c-3.1772 0-17.713-21.803-14.535-21.803z"/>
   </g>
   <path d="m637.96 43.728c-18.236-2.0659-37.677 85.552-45.719 200.12 1.4606-0.41846 2.8925-0.97488 4.375-1.2812 26.6-5.4973 46.566-11.031 66.625-11.031 0.084595 0 0.19397 0.057281 0.28119 0.0625 1.9057-105.4-8.3975-185.93-25.562-187.88z" stroke-width="9.156"/>
  </g>
 </g>
</svg>
