<?xml version="1.0" encoding="UTF-8"?>
<svg viewBox="0 0 154.69193 288.18076" xmlns="http://www.w3.org/2000/svg">
 <g transform="translate(-283.7 -405.87)" fill="#fff" fill-opacity=".99219" stroke="#000" stroke-linecap="round" stroke-linejoin="round">
  <path d="m285.71 439.53-1.0102 253.52h150l2.4387-254.98-151.43 1.4574z" stroke-width="2"/>
  <path d="m295.71 565.22v100l127.13-1e-5 1.4446-101.43-128.57 1.4286z"/>
  <path d="m348.69 624.98c-1.7011 2.2788-2.9838 4.6413 0 7.8571l33.571-0.71428c2.8571-2.619 2.8572-5.2381 0-7.8571l-33.571 0.71428z"/>
  <g transform="matrix(1 0 0 .85269 0 86.874)" stroke-width="1.0829">
   <path d="m335 590.93 0.71429 25.714 50.714-1e-5v-26.429l-51.429 0.71429z"/>
   <path d="m338.57 594.51 0.71428 18.693 43.571-0.12195v-19.286l-44.286 0.71428z"/>
  </g>
  <path d="m335.89 626.06c-1.8751 3.669-1.4396 4.9462 0.35715 7.5l5.2551-0.35715c2.449-2.1428 1.0204-5.2381 0-7.1428h-5.6122z"/>
  <path d="m295.62 458.6v100l128.54-1e-5 1.4606-101.43-130 1.4286z"/>
  <path d="m348.6 518.37c-1.7011 2.2788-2.9838 4.6413 0 7.8571l33.571-0.71428c2.8571-2.619 2.8572-5.2381 0-7.8571l-33.571 0.71428z"/>
  <g transform="matrix(1 0 0 .85269 -.089831 -19.741)" stroke-width="1.0829">
   <path d="m335 590.93 0.71429 25.714 50.714-1e-5v-26.429l-51.429 0.71429z"/>
   <path d="m338.57 594.51 0.71428 19.286 43.571-0.71429v-19.286l-44.286 0.71428z"/>
  </g>
  <path d="m335.8 519.44c-1.8751 3.669-1.4396 4.9462 0.35715 7.5l5.2551-0.35715c2.449-2.1428 1.0204-5.2381 0-7.1428h-5.6122z"/>
  <path d="m285.87 439.2 35.355-32.325 83.843 1e-5 32.325 31.315-151.52 1.0102z" stroke-width="2"/>
 </g>
</svg>
